<mxfile host="65bd71144e">
    <diagram id="oIJTcVa5EI4PqaQC0vXS" name="ページ1">
        <mxGraphModel dx="1556" dy="785" grid="1" gridSize="10" guides="1" tooltips="1" connect="1" arrows="1" fold="1" page="1" pageScale="1" pageWidth="1169" pageHeight="827" math="0" shadow="0">
            <root>
                <mxCell id="0"/>
                <mxCell id="1" parent="0"/>
                <mxCell id="28" value="" style="rounded=0;whiteSpace=wrap;html=1;fillColor=none;strokeColor=none;" parent="1" vertex="1">
                    <mxGeometry x="40" y="40" width="620" height="260" as="geometry"/>
                </mxCell>
                <mxCell id="29" value="データアクセス層" style="rounded=0;whiteSpace=wrap;html=1;fillColor=#85D2FF;strokeColor=#FFFFFF;fontColor=#000000;fontFamily=Noto Sans JP;fontSource=https%3A%2F%2Ffonts.googleapis.com%2Fcss%3Ffamily%3DNoto%2BSans%2BJP;fontSize=18;" parent="1" vertex="1">
                    <mxGeometry x="50" y="250" width="210" height="40" as="geometry"/>
                </mxCell>
                <mxCell id="30" style="edgeStyle=none;html=1;exitX=0.5;exitY=1;exitDx=0;exitDy=0;entryX=0.5;entryY=0;entryDx=0;entryDy=0;fontFamily=Noto Sans JP;fontSource=https%3A%2F%2Ffonts.googleapis.com%2Fcss%3Ffamily%3DNoto%2BSans%2BJP;fontSize=18;fontColor=#000000;endArrow=open;endFill=0;strokeColor=#FFFFFF;" parent="1" source="31" target="29" edge="1">
                    <mxGeometry relative="1" as="geometry"/>
                </mxCell>
                <mxCell id="31" value="ビジネス層" style="rounded=0;whiteSpace=wrap;html=1;fillColor=#85D2FF;strokeColor=#FFFFFF;fontColor=#000000;fontFamily=Noto Sans JP;fontSource=https%3A%2F%2Ffonts.googleapis.com%2Fcss%3Ffamily%3DNoto%2BSans%2BJP;fontSize=18;" parent="1" vertex="1">
                    <mxGeometry x="50" y="170" width="210" height="40" as="geometry"/>
                </mxCell>
                <mxCell id="32" style="edgeStyle=none;html=1;exitX=0.5;exitY=1;exitDx=0;exitDy=0;fontFamily=Noto Sans JP;fontSource=https%3A%2F%2Ffonts.googleapis.com%2Fcss%3Ffamily%3DNoto%2BSans%2BJP;fontSize=18;fontColor=#000000;strokeColor=#FFFFFF;endArrow=open;endFill=0;" parent="1" source="33" target="31" edge="1">
                    <mxGeometry relative="1" as="geometry"/>
                </mxCell>
                <mxCell id="33" value="プレゼンテーション層" style="rounded=0;whiteSpace=wrap;html=1;fillColor=#85D2FF;strokeColor=#FFFFFF;fontColor=#000000;fontFamily=Noto Sans JP;fontSource=https%3A%2F%2Ffonts.googleapis.com%2Fcss%3Ffamily%3DNoto%2BSans%2BJP;fontSize=18;" parent="1" vertex="1">
                    <mxGeometry x="50" y="90" width="210" height="40" as="geometry"/>
                </mxCell>
                <mxCell id="34" value="プレゼンテーション層" style="rounded=0;whiteSpace=wrap;html=1;fillColor=#85D2FF;strokeColor=#FFFFFF;fontColor=#000000;fontFamily=Noto Sans JP;fontSource=https%3A%2F%2Ffonts.googleapis.com%2Fcss%3Ffamily%3DNoto%2BSans%2BJP;fontSize=18;" parent="1" vertex="1">
                    <mxGeometry x="300" y="90" width="350" height="40" as="geometry"/>
                </mxCell>
                <mxCell id="35" style="edgeStyle=none;html=1;entryX=0.329;entryY=-0.013;entryDx=0;entryDy=0;fontFamily=Noto Sans JP;fontSource=https%3A%2F%2Ffonts.googleapis.com%2Fcss%3Ffamily%3DNoto%2BSans%2BJP;fontSize=18;fontColor=#000000;endArrow=open;endFill=0;strokeColor=#FFFFFF;entryPerimeter=0;exitX=0.5;exitY=1;exitDx=0;exitDy=0;" parent="1" source="36" target="37" edge="1">
                    <mxGeometry relative="1" as="geometry">
                        <mxPoint x="370" y="250" as="targetPoint"/>
                    </mxGeometry>
                </mxCell>
                <mxCell id="36" value="インフラストラクチャ層" style="rounded=0;whiteSpace=wrap;html=1;fillColor=#85D2FF;strokeColor=#FFFFFF;fontColor=#000000;fontFamily=Noto Sans JP;fontSource=https%3A%2F%2Ffonts.googleapis.com%2Fcss%3Ffamily%3DNoto%2BSans%2BJP;fontSize=18;" parent="1" vertex="1">
                    <mxGeometry x="300" y="170" width="230" height="40" as="geometry"/>
                </mxCell>
                <mxCell id="37" value="アプリケーションコア層" style="rounded=0;whiteSpace=wrap;html=1;fillColor=#85D2FF;strokeColor=#FFFFFF;fontColor=#000000;fontFamily=Noto Sans JP;fontSource=https%3A%2F%2Ffonts.googleapis.com%2Fcss%3Ffamily%3DNoto%2BSans%2BJP;fontSize=18;" parent="1" vertex="1">
                    <mxGeometry x="300" y="250" width="350" height="40" as="geometry"/>
                </mxCell>
                <mxCell id="38" style="edgeStyle=none;html=1;entryX=0.865;entryY=-0.017;entryDx=0;entryDy=0;fontFamily=Noto Sans JP;fontSource=https%3A%2F%2Ffonts.googleapis.com%2Fcss%3Ffamily%3DNoto%2BSans%2BJP;fontSize=18;fontColor=#000000;endArrow=open;endFill=0;strokeColor=#FFFFFF;exitX=0.5;exitY=1;exitDx=0;exitDy=0;entryPerimeter=0;" parent="1" source="39" target="37" edge="1">
                    <mxGeometry relative="1" as="geometry">
                        <mxPoint x="505" y="250" as="targetPoint"/>
                    </mxGeometry>
                </mxCell>
                <mxCell id="39" value="テスト" style="rounded=0;whiteSpace=wrap;html=1;fillColor=#85D2FF;strokeColor=#FFFFFF;fontColor=#000000;fontFamily=Noto Sans JP;fontSource=https%3A%2F%2Ffonts.googleapis.com%2Fcss%3Ffamily%3DNoto%2BSans%2BJP;fontSize=18;" parent="1" vertex="1">
                    <mxGeometry x="558" y="170" width="90" height="40" as="geometry"/>
                </mxCell>
                <mxCell id="40" style="edgeStyle=none;html=1;entryX=0.5;entryY=0;entryDx=0;entryDy=0;fontFamily=Noto Sans JP;fontSource=https%3A%2F%2Ffonts.googleapis.com%2Fcss%3Ffamily%3DNoto%2BSans%2BJP;fontSize=18;fontColor=#000000;endArrow=open;endFill=0;strokeColor=#FFFFFF;" parent="1" edge="1">
                    <mxGeometry relative="1" as="geometry">
                        <mxPoint x="542" y="130" as="sourcePoint"/>
                        <mxPoint x="542" y="250" as="targetPoint"/>
                    </mxGeometry>
                </mxCell>
                <mxCell id="41" style="edgeStyle=none;html=1;entryX=0.5;entryY=0;entryDx=0;entryDy=0;fontFamily=Noto Sans JP;fontSource=https%3A%2F%2Ffonts.googleapis.com%2Fcss%3Ffamily%3DNoto%2BSans%2BJP;fontSize=18;fontColor=#000000;endArrow=open;endFill=0;strokeColor=#FFFFFF;dashed=1;" parent="1" target="36" edge="1">
                    <mxGeometry relative="1" as="geometry">
                        <mxPoint x="415" y="130" as="sourcePoint"/>
                    </mxGeometry>
                </mxCell>
                <mxCell id="42" value="レイヤードアーキテクチャ" style="text;html=1;align=left;verticalAlign=middle;whiteSpace=wrap;rounded=0;fontFamily=Noto Sans JP;fontSource=https%3A%2F%2Ffonts.googleapis.com%2Fcss%3Ffamily%3DNoto%2BSans%2BJP;fontSize=18;fontColor=#000000;" parent="1" vertex="1">
                    <mxGeometry x="50" y="50" width="230" height="30" as="geometry"/>
                </mxCell>
                <mxCell id="43" value="" style="endArrow=none;dashed=1;html=1;strokeWidth=2;fontFamily=Noto Sans JP;fontSource=https%3A%2F%2Ffonts.googleapis.com%2Fcss%3Ffamily%3DNoto%2BSans%2BJP;fontSize=18;fontColor=#000000;strokeColor=#cccccc;dashPattern=1 2;" parent="1" edge="1">
                    <mxGeometry width="50" height="50" relative="1" as="geometry">
                        <mxPoint x="280" y="290" as="sourcePoint"/>
                        <mxPoint x="280" y="50" as="targetPoint"/>
                    </mxGeometry>
                </mxCell>
                <mxCell id="44" value="クリーンアーキテクチャ" style="text;html=1;strokeColor=none;fillColor=none;align=left;verticalAlign=middle;whiteSpace=wrap;rounded=0;fontFamily=Noto Sans JP;fontSource=https%3A%2F%2Ffonts.googleapis.com%2Fcss%3Ffamily%3DNoto%2BSans%2BJP;fontSize=18;fontColor=#000000;" parent="1" vertex="1">
                    <mxGeometry x="300" y="50" width="230" height="30" as="geometry"/>
                </mxCell>
            </root>
        </mxGraphModel>
    </diagram>
</mxfile>